<?xml version="1.0" encoding="UTF-8" standalone="no"?>
<!DOCTYPE svg PUBLIC "-//W3C//DTD SVG 1.1//EN"
 "http://www.w3.org/Graphics/SVG/1.1/DTD/svg11.dtd">
<!-- Generated by graphviz version 2.30.1 (20180828.1746)
 -->
<!-- Title: %3 Pages: 1 -->
<svg width="1127pt" height="260pt"
 viewBox="0.00 0.00 1127.00 260.00" xmlns="http://www.w3.org/2000/svg" xmlns:xlink="http://www.w3.org/1999/xlink">
<g id="graph0" class="graph" transform="scale(1 1) rotate(0) translate(4 256)">
<title>%3</title>
<polygon fill="white" stroke="white" points="-4,5 -4,-256 1124,-256 1124,5 -4,5"/>
<!-- [root] aws_instance.us_east_frontend (expand) -->
<g id="node1" class="node"><title>[root] aws_instance.us_east_frontend (expand)</title>
<polygon fill="none" stroke="black" points="373.25,-108 190.75,-108 190.75,-72 373.25,-72 373.25,-108"/>
<text text-anchor="middle" x="282" y="-86.3" font-family="Times,serif" font-size="14.00">aws_instance.us_east_frontend</text>
</g>
<!-- [root] provider[&quot;registry.terraform.io/hashicorp/aws&quot;] -->
<g id="node3" class="node"><title>[root] provider[&quot;registry.terraform.io/hashicorp/aws&quot;]</title>
<polygon fill="none" stroke="black" points="250,-36 -0.0161616,-18 250,-3.55271e-15 500.016,-18 250,-36"/>
<text text-anchor="middle" x="250" y="-14.3" font-family="Times,serif" font-size="14.00">provider[&quot;registry.terraform.io/hashicorp/aws&quot;]</text>
</g>
<!-- [root] aws_instance.us_east_frontend (expand)&#45;&gt;[root] provider[&quot;registry.terraform.io/hashicorp/aws&quot;] -->
<g id="edge1" class="edge"><title>[root] aws_instance.us_east_frontend (expand)&#45;&gt;[root] provider[&quot;registry.terraform.io/hashicorp/aws&quot;]</title>
<path fill="none" stroke="black" d="M274.09,-71.6966C270.393,-63.6095 265.914,-53.8117 261.826,-44.8691"/>
<polygon fill="black" stroke="black" points="264.94,-43.2619 257.599,-35.6223 258.573,-46.1722 264.94,-43.2619"/>
</g>
<!-- [root] aws_instance.us_west_frontend (expand) -->
<g id="node2" class="node"><title>[root] aws_instance.us_west_frontend (expand)</title>
<polygon fill="none" stroke="black" points="907,-108 721,-108 721,-72 907,-72 907,-108"/>
<text text-anchor="middle" x="814" y="-86.3" font-family="Times,serif" font-size="14.00">aws_instance.us_west_frontend</text>
</g>
<!-- [root] provider[&quot;registry.terraform.io/hashicorp/aws&quot;].us&#45;west&#45;2 -->
<g id="node4" class="node"><title>[root] provider[&quot;registry.terraform.io/hashicorp/aws&quot;].us&#45;west&#45;2</title>
<polygon fill="none" stroke="black" points="819,-36 518.653,-18 819,-3.55271e-15 1119.35,-18 819,-36"/>
<text text-anchor="middle" x="819" y="-14.3" font-family="Times,serif" font-size="14.00">provider[&quot;registry.terraform.io/hashicorp/aws&quot;].us&#45;west&#45;2</text>
</g>
<!-- [root] aws_instance.us_west_frontend (expand)&#45;&gt;[root] provider[&quot;registry.terraform.io/hashicorp/aws&quot;].us&#45;west&#45;2 -->
<g id="edge2" class="edge"><title>[root] aws_instance.us_west_frontend (expand)&#45;&gt;[root] provider[&quot;registry.terraform.io/hashicorp/aws&quot;].us&#45;west&#45;2</title>
<path fill="none" stroke="black" d="M815.236,-71.6966C815.787,-63.9827 816.449,-54.7125 817.063,-46.1124"/>
<polygon fill="black" stroke="black" points="820.557,-46.3283 817.778,-36.1043 813.575,-45.8295 820.557,-46.3283"/>
</g>
<!-- [root] provider[&quot;registry.terraform.io/hashicorp/aws&quot;] (close) -->
<g id="node5" class="node"><title>[root] provider[&quot;registry.terraform.io/hashicorp/aws&quot;] (close)</title>
<ellipse fill="none" stroke="black" cx="298" cy="-162" rx="225.295" ry="18"/>
<text text-anchor="middle" x="298" y="-158.3" font-family="Times,serif" font-size="14.00">[root] provider[&quot;registry.terraform.io/hashicorp/aws&quot;] (close)</text>
</g>
<!-- [root] provider[&quot;registry.terraform.io/hashicorp/aws&quot;] (close)&#45;&gt;[root] aws_instance.us_east_frontend (expand) -->
<g id="edge3" class="edge"><title>[root] provider[&quot;registry.terraform.io/hashicorp/aws&quot;] (close)&#45;&gt;[root] aws_instance.us_east_frontend (expand)</title>
<path fill="none" stroke="black" d="M294.045,-143.697C292.282,-135.983 290.163,-126.712 288.197,-118.112"/>
<polygon fill="black" stroke="black" points="291.55,-117.073 285.91,-108.104 284.726,-118.633 291.55,-117.073"/>
</g>
<!-- [root] provider[&quot;registry.terraform.io/hashicorp/aws&quot;].us&#45;west&#45;2 (close) -->
<g id="node6" class="node"><title>[root] provider[&quot;registry.terraform.io/hashicorp/aws&quot;].us&#45;west&#45;2 (close)</title>
<ellipse fill="none" stroke="black" cx="810" cy="-162" rx="260.44" ry="18"/>
<text text-anchor="middle" x="810" y="-158.3" font-family="Times,serif" font-size="14.00">[root] provider[&quot;registry.terraform.io/hashicorp/aws&quot;].us&#45;west&#45;2 (close)</text>
</g>
<!-- [root] provider[&quot;registry.terraform.io/hashicorp/aws&quot;].us&#45;west&#45;2 (close)&#45;&gt;[root] aws_instance.us_west_frontend (expand) -->
<g id="edge4" class="edge"><title>[root] provider[&quot;registry.terraform.io/hashicorp/aws&quot;].us&#45;west&#45;2 (close)&#45;&gt;[root] aws_instance.us_west_frontend (expand)</title>
<path fill="none" stroke="black" d="M810.989,-143.697C811.43,-135.983 811.959,-126.712 812.451,-118.112"/>
<polygon fill="black" stroke="black" points="815.946,-118.288 813.023,-108.104 808.958,-117.888 815.946,-118.288"/>
</g>
<!-- [root] root -->
<g id="node7" class="node"><title>[root] root</title>
<ellipse fill="none" stroke="black" cx="554" cy="-234" rx="47.169" ry="18"/>
<text text-anchor="middle" x="554" y="-230.3" font-family="Times,serif" font-size="14.00">[root] root</text>
</g>
<!-- [root] root&#45;&gt;[root] provider[&quot;registry.terraform.io/hashicorp/aws&quot;] (close) -->
<g id="edge5" class="edge"><title>[root] root&#45;&gt;[root] provider[&quot;registry.terraform.io/hashicorp/aws&quot;] (close)</title>
<path fill="none" stroke="black" d="M516.775,-222.821C477.855,-212.179 415.864,-195.228 367.791,-182.084"/>
<polygon fill="black" stroke="black" points="368.635,-178.686 358.066,-179.424 366.789,-185.438 368.635,-178.686"/>
</g>
<!-- [root] root&#45;&gt;[root] provider[&quot;registry.terraform.io/hashicorp/aws&quot;].us&#45;west&#45;2 (close) -->
<g id="edge6" class="edge"><title>[root] root&#45;&gt;[root] provider[&quot;registry.terraform.io/hashicorp/aws&quot;].us&#45;west&#45;2 (close)</title>
<path fill="none" stroke="black" d="M591.225,-222.821C630.016,-212.214 691.723,-195.341 739.727,-182.215"/>
<polygon fill="black" stroke="black" points="740.719,-185.573 749.442,-179.559 738.873,-178.82 740.719,-185.573"/>
</g>
</g>
</svg>
