<?xml version="1.0" encoding="UTF-8" standalone="no"?>
<!DOCTYPE svg PUBLIC "-//W3C//DTD SVG 1.1//EN"
 "http://www.w3.org/Graphics/SVG/1.1/DTD/svg11.dtd">
<!-- Generated by graphviz version 2.30.1 (20180828.1746)
 -->
<!-- Title: %3 Pages: 1 -->
<svg width="1368pt" height="332pt"
 viewBox="0.00 0.00 1368.00 332.00" xmlns="http://www.w3.org/2000/svg" xmlns:xlink="http://www.w3.org/1999/xlink">
<g id="graph0" class="graph" transform="scale(1 1) rotate(0) translate(4 328)">
<title>%3</title>
<polygon fill="white" stroke="white" points="-4,5 -4,-328 1365,-328 1365,5 -4,5"/>
<!-- [root] aws_instance.backend (expand) -->
<g id="node1" class="node"><title>[root] aws_instance.backend (expand)</title>
<polygon fill="none" stroke="black" points="406,-108 270,-108 270,-72 406,-72 406,-108"/>
<text text-anchor="middle" x="338" y="-86.3" font-family="Times,serif" font-size="14.00">aws_instance.backend</text>
</g>
<!-- [root] provider[&quot;registry.terraform.io/hashicorp/aws&quot;] -->
<g id="node4" class="node"><title>[root] provider[&quot;registry.terraform.io/hashicorp/aws&quot;]</title>
<polygon fill="none" stroke="black" points="338,-36 87.9838,-18 338,-3.55271e-15 588.016,-18 338,-36"/>
<text text-anchor="middle" x="338" y="-14.3" font-family="Times,serif" font-size="14.00">provider[&quot;registry.terraform.io/hashicorp/aws&quot;]</text>
</g>
<!-- [root] aws_instance.backend (expand)&#45;&gt;[root] provider[&quot;registry.terraform.io/hashicorp/aws&quot;] -->
<g id="edge1" class="edge"><title>[root] aws_instance.backend (expand)&#45;&gt;[root] provider[&quot;registry.terraform.io/hashicorp/aws&quot;]</title>
<path fill="none" stroke="black" d="M338,-71.6966C338,-63.9827 338,-54.7125 338,-46.1124"/>
<polygon fill="black" stroke="black" points="341.5,-46.1043 338,-36.1043 334.5,-46.1044 341.5,-46.1043"/>
</g>
<!-- [root] aws_instance.frontend (expand) -->
<g id="node2" class="node"><title>[root] aws_instance.frontend (expand)</title>
<polygon fill="none" stroke="black" points="406.25,-180 269.75,-180 269.75,-144 406.25,-144 406.25,-180"/>
<text text-anchor="middle" x="338" y="-158.3" font-family="Times,serif" font-size="14.00">aws_instance.frontend</text>
</g>
<!-- [root] aws_instance.frontend (expand)&#45;&gt;[root] aws_instance.backend (expand) -->
<g id="edge2" class="edge"><title>[root] aws_instance.frontend (expand)&#45;&gt;[root] aws_instance.backend (expand)</title>
<path fill="none" stroke="black" d="M338,-143.697C338,-135.983 338,-126.712 338,-118.112"/>
<polygon fill="black" stroke="black" points="341.5,-118.104 338,-108.104 334.5,-118.104 341.5,-118.104"/>
</g>
<!-- [root] aws_instance.us_west_frontend (expand) -->
<g id="node3" class="node"><title>[root] aws_instance.us_west_frontend (expand)</title>
<polygon fill="none" stroke="black" points="931,-180 745,-180 745,-144 931,-144 931,-180"/>
<text text-anchor="middle" x="838" y="-158.3" font-family="Times,serif" font-size="14.00">aws_instance.us_west_frontend</text>
</g>
<!-- [root] provider[&quot;registry.terraform.io/hashicorp/aws&quot;].us&#45;west&#45;2 -->
<g id="node5" class="node"><title>[root] provider[&quot;registry.terraform.io/hashicorp/aws&quot;].us&#45;west&#45;2</title>
<polygon fill="none" stroke="black" points="838,-108 537.653,-90 838,-72 1138.35,-90 838,-108"/>
<text text-anchor="middle" x="838" y="-86.3" font-family="Times,serif" font-size="14.00">provider[&quot;registry.terraform.io/hashicorp/aws&quot;].us&#45;west&#45;2</text>
</g>
<!-- [root] aws_instance.us_west_frontend (expand)&#45;&gt;[root] provider[&quot;registry.terraform.io/hashicorp/aws&quot;].us&#45;west&#45;2 -->
<g id="edge3" class="edge"><title>[root] aws_instance.us_west_frontend (expand)&#45;&gt;[root] provider[&quot;registry.terraform.io/hashicorp/aws&quot;].us&#45;west&#45;2</title>
<path fill="none" stroke="black" d="M838,-143.697C838,-135.983 838,-126.712 838,-118.112"/>
<polygon fill="black" stroke="black" points="841.5,-118.104 838,-108.104 834.5,-118.104 841.5,-118.104"/>
</g>
<!-- [root] meta.count&#45;boundary (EachMode fixup) -->
<g id="node6" class="node"><title>[root] meta.count&#45;boundary (EachMode fixup)</title>
<ellipse fill="none" stroke="black" cx="645" cy="-234" rx="176.202" ry="18"/>
<text text-anchor="middle" x="645" y="-230.3" font-family="Times,serif" font-size="14.00">[root] meta.count&#45;boundary (EachMode fixup)</text>
</g>
<!-- [root] meta.count&#45;boundary (EachMode fixup)&#45;&gt;[root] aws_instance.frontend (expand) -->
<g id="edge4" class="edge"><title>[root] meta.count&#45;boundary (EachMode fixup)&#45;&gt;[root] aws_instance.frontend (expand)</title>
<path fill="none" stroke="black" d="M576.485,-217.378C529.036,-206.559 465.766,-192.132 416.319,-180.858"/>
<polygon fill="black" stroke="black" points="416.833,-177.385 406.305,-178.574 415.277,-184.21 416.833,-177.385"/>
</g>
<!-- [root] meta.count&#45;boundary (EachMode fixup)&#45;&gt;[root] aws_instance.us_west_frontend (expand) -->
<g id="edge5" class="edge"><title>[root] meta.count&#45;boundary (EachMode fixup)&#45;&gt;[root] aws_instance.us_west_frontend (expand)</title>
<path fill="none" stroke="black" d="M690.25,-216.588C717.477,-206.713 752.373,-194.057 781.414,-183.524"/>
<polygon fill="black" stroke="black" points="782.811,-186.74 791.018,-180.04 780.424,-180.159 782.811,-186.74"/>
</g>
<!-- [root] provider[&quot;registry.terraform.io/hashicorp/aws&quot;] (close) -->
<g id="node7" class="node"><title>[root] provider[&quot;registry.terraform.io/hashicorp/aws&quot;] (close)</title>
<ellipse fill="none" stroke="black" cx="225" cy="-234" rx="225.295" ry="18"/>
<text text-anchor="middle" x="225" y="-230.3" font-family="Times,serif" font-size="14.00">[root] provider[&quot;registry.terraform.io/hashicorp/aws&quot;] (close)</text>
</g>
<!-- [root] provider[&quot;registry.terraform.io/hashicorp/aws&quot;] (close)&#45;&gt;[root] aws_instance.frontend (expand) -->
<g id="edge6" class="edge"><title>[root] provider[&quot;registry.terraform.io/hashicorp/aws&quot;] (close)&#45;&gt;[root] aws_instance.frontend (expand)</title>
<path fill="none" stroke="black" d="M252.354,-216.055C267.234,-206.837 285.829,-195.319 301.886,-185.371"/>
<polygon fill="black" stroke="black" points="303.848,-188.273 310.506,-180.032 300.162,-182.322 303.848,-188.273"/>
</g>
<!-- [root] provider[&quot;registry.terraform.io/hashicorp/aws&quot;].us&#45;west&#45;2 (close) -->
<g id="node8" class="node"><title>[root] provider[&quot;registry.terraform.io/hashicorp/aws&quot;].us&#45;west&#45;2 (close)</title>
<ellipse fill="none" stroke="black" cx="1100" cy="-234" rx="260.44" ry="18"/>
<text text-anchor="middle" x="1100" y="-230.3" font-family="Times,serif" font-size="14.00">[root] provider[&quot;registry.terraform.io/hashicorp/aws&quot;].us&#45;west&#45;2 (close)</text>
</g>
<!-- [root] provider[&quot;registry.terraform.io/hashicorp/aws&quot;].us&#45;west&#45;2 (close)&#45;&gt;[root] aws_instance.us_west_frontend (expand) -->
<g id="edge7" class="edge"><title>[root] provider[&quot;registry.terraform.io/hashicorp/aws&quot;].us&#45;west&#45;2 (close)&#45;&gt;[root] aws_instance.us_west_frontend (expand)</title>
<path fill="none" stroke="black" d="M1038.24,-216.5C1000.37,-206.38 951.653,-193.365 911.758,-182.706"/>
<polygon fill="black" stroke="black" points="912.645,-179.32 902.08,-180.121 910.838,-186.083 912.645,-179.32"/>
</g>
<!-- [root] root -->
<g id="node9" class="node"><title>[root] root</title>
<ellipse fill="none" stroke="black" cx="645" cy="-306" rx="47.169" ry="18"/>
<text text-anchor="middle" x="645" y="-302.3" font-family="Times,serif" font-size="14.00">[root] root</text>
</g>
<!-- [root] root&#45;&gt;[root] meta.count&#45;boundary (EachMode fixup) -->
<g id="edge8" class="edge"><title>[root] root&#45;&gt;[root] meta.count&#45;boundary (EachMode fixup)</title>
<path fill="none" stroke="black" d="M645,-287.697C645,-279.983 645,-270.712 645,-262.112"/>
<polygon fill="black" stroke="black" points="648.5,-262.104 645,-252.104 641.5,-262.104 648.5,-262.104"/>
</g>
<!-- [root] root&#45;&gt;[root] provider[&quot;registry.terraform.io/hashicorp/aws&quot;] (close) -->
<g id="edge9" class="edge"><title>[root] root&#45;&gt;[root] provider[&quot;registry.terraform.io/hashicorp/aws&quot;] (close)</title>
<path fill="none" stroke="black" d="M602.417,-297.903C538.459,-287.243 415.71,-266.785 327.547,-252.091"/>
<polygon fill="black" stroke="black" points="327.952,-248.611 317.513,-250.419 326.801,-255.515 327.952,-248.611"/>
</g>
<!-- [root] root&#45;&gt;[root] provider[&quot;registry.terraform.io/hashicorp/aws&quot;].us&#45;west&#45;2 (close) -->
<g id="edge10" class="edge"><title>[root] root&#45;&gt;[root] provider[&quot;registry.terraform.io/hashicorp/aws&quot;].us&#45;west&#45;2 (close)</title>
<path fill="none" stroke="black" d="M688.215,-298.351C756.453,-287.853 891.337,-267.102 988.153,-252.207"/>
<polygon fill="black" stroke="black" points="988.932,-255.629 998.284,-250.649 987.868,-248.71 988.932,-255.629"/>
</g>
</g>
</svg>
